<svg id="Layer_1" data-name="Layer 1" xmlns="http://www.w3.org/2000/svg" viewBox="0 0 49.8 96.73"><defs><style>.cls-1{fill:none;}.cls-2{fill:#fff;}</style></defs><title>asparagus</title><rect class="cls-1" width="49.8" height="96.58"/><path class="cls-2" d="M19.66,24.81a38.82,38.82,0,0,1,2.62,3.91c0.71,1.36,1.1,2.88,1.87,4.36,1.37-3,1.44-6.51,4-9.29a22.41,22.41,0,0,1,.12,7.51A27.19,27.19,0,0,0,28,36a324.74,324.74,0,0,1,1.15,33.3C29,77.61,28.6,85.91,28.29,94.22A21.14,21.14,0,0,1,28,96.73H19.85V93.81q0-21.35.07-42.69c0-5.19.52-10.37,0.7-15.57a19.53,19.53,0,0,0-.48-4c-0.38-2.18-.84-4.34-1.27-6.51Zm-10-10.74a8.58,8.58,0,0,1,2.85,4.25c0.5,1.52.74,3.12,1.38,4.68,1.38-2.88,1.57-6.17,3.7-8.93a3,3,0,0,1,.16,2.59,34,34,0,0,0,0,15,43.86,43.86,0,0,1,.41,9.29C18,53.13,17.71,65.35,17.49,77.57c-0.05,2.87,0,5.74,0,8.81H10.17a18.23,18.23,0,0,1-.24-2C9.61,66.57,9.57,48.76,10.34,31c0-1,.18-2.07.24-3.11a18.36,18.36,0,0,0-.64-7.59c-0.67-1.9-.65-4-0.94-6.07Zm18.92,1.45A12.72,12.72,0,0,1,33,23.19h0.61a13.94,13.94,0,0,0,.5-1.55c0.38-1.87.63-3.78,1.12-5.62a16,16,0,0,1,1.41-2.89l0.6,0.12c0.15,1.31.34,2.61,0.43,3.92a8.51,8.51,0,0,1-.07,2.39c-0.92,4.23,0,8.42.13,12.62,0.28,9.5.66,19,.63,28.51,0,8.14-.58,16.28-0.9,24.42,0,0.39-.09.78-0.15,1.33H31v-3c0.09-9.5.35-19,.22-28.52-0.09-6.62-.73-13.24-1.11-19.85a8.18,8.18,0,0,1,.08-2.14,29.49,29.49,0,0,0-1.2-16C28.8,16.4,28.7,16,28.57,15.52Z"/><path class="cls-2" d="M19.79,17.19c5.17,3.22,6.51,7.18,4.28,11.69-1.47-1.9-3-3.8-4.41-5.74a2.43,2.43,0,0,1-.46-1.49C19.31,20.24,19.56,18.85,19.79,17.19ZM14,18.75a13.6,13.6,0,0,0-4.36-6.4,1.36,1.36,0,0,1-.36-1.06C9.46,9.74,9.73,8.2,10,6.09c2.43,2.83,4.15,5.33,5,8.36C15.48,15.88,14.65,17,14,18.75ZM28.71,7.45c4.48,3.36,5.92,7.32,4.41,11.35-1.44-1.76-2.88-3.49-4.28-5.26a2.15,2.15,0,0,1-.51-1.26C28.39,10.79,28.55,9.31,28.71,7.45ZM23.07,9.74L25.6,14.3,23,17.91l-2.86-2.18,2.24-5.89Zm8.54-1.82C29,6.74,29.1,5,29.92,3c0.35-.86.64-1.74,1.11-3l2.91,4.33ZM15.13,4.62L13,7.5C10.45,4.72,9.77,5.6,12.57.16A10.9,10.9,0,0,1,15.13,4.62Zm19.78,8.82c-0.68-1.18-1.39-2.22-1.9-3.34-0.83-1.79.44-2.89,1.7-4.4l2.21,5.48Zm-8.53,2.69c0.5,1.64,1,3.26,1.48,4.92,0.25,1,.16,1-1.34,2.36C25.8,22.12,25,20.87,24.4,19.56a1.73,1.73,0,0,1,0-1.32,21.74,21.74,0,0,1,1.31-2.18ZM15.94,5.93c0.54,1.88,1,3.58,1.52,5.29,0.33,1.17-.38,1.73-1.32,2.22-0.43-.89-0.82-1.75-1.25-2.59C13.7,8.55,13.74,8.25,15.94,5.93Z"/></svg>