<svg version="1.1"
	 xmlns="http://www.w3.org/2000/svg" xmlns:xlink="http://www.w3.org/1999/xlink" xmlns:a="http://ns.adobe.com/AdobeSVGViewerExtensions/3.0/"
	 x="0px" y="0px" width="167.1px" height="131.2px" viewBox="0 0 167.1 131.2" enable-background="new 0 0 167.1 131.2"
	 xml:space="preserve">
<defs>
</defs>
<path id="XMLID_19_" fill="#00CC6B" d="M47.6,15.7c5-2.2-10.6-12.7-2.4-15.3c8.2-2.7,4.2,10.5,7.1,15c2.8-0.1,4-0.4,8,1.8
	c-0.7,7.6-13.4,14.5-20.6,5.2C40.6,18.8,44.3,17.1,47.6,15.7z"/>
<circle id="XMLID_18_" fill="#FF7F0B" cx="81.4" cy="41.7" r="28.2"/>
<circle id="XMLID_17_" fill="#FFC400" cx="49.9" cy="27.3" r="19.9"/>
<circle id="XMLID_16_" fill="#C60021" cx="125.5" cy="53.1" r="34.9"/>
<path id="XMLID_15_" fill="#CFA36D" d="M167.1,57.4c0,39.7-37.5,73.9-82.9,73.9c-41.3,0-89.2-32-83.8-77.5
	c0.8-7.1,4.7-15.5,9.7-20.8c5.5-5.7,15.2-8.1,22.4-8c8.2,0.2,16.3,3.3,22.4,8.7C61.1,39,65,46.2,70,52.5
	c5.8,7.3,12.5,11.3,21.4,13.8c12.3,3.4,25.9,4.3,38.5,2.8c6.4-0.8,12.8-2.2,18.9-4.2C151,64.2,164.9,58.5,167.1,57.4z"/>
</svg>