<svg id="bowl-icon" xmlns="http://www.w3.org/2000/svg" viewBox="0 0 166.81 166.81"><defs><style>.cls-1{fill:#ff7f0b;}.cls-2{fill:#ffc400;}.cls-3{fill:#00cc6b;}.cls-4{fill:#c60021;}.cls-5{fill:#ecb583;}.cls-6{fill:none;}</style></defs><title>bowl</title><circle id="orange" class="cls-1" cx="81.41" cy="90.29" r="28.22"/><g id="yellow"><path id="yellow-2" data-name="yellow" class="cls-2" d="M45.84,61.07a19.89,19.89,0,1,1-1,0l1,0" transform="translate(0 0)"/><path class="cls-3" d="M40,61.65c-2.21-3.18-3.94-6.38.1-7.69,5-1.61,5.47,2.56,5.72,7.12Z" transform="translate(0 0)"/></g><circle id="red" class="cls-4" cx="125.47" cy="103.7" r="34.85"/><path id="bowl" class="cls-5" d="M162.38,107.42a3.25,3.25,0,0,1,4.41,3.27c-3.57,30.71-39.5,56.12-82.62,56.12C42.86,166.81-5,140.35.42,102.66c0.84-5.84,4.66-12.84,9.73-17.21,5.48-4.73,15.17-6.71,22.43-6.6A39.6,39.6,0,0,1,55,86C61.06,90.49,65,96.44,70,101.66c5.76,6,12.48,9.35,21.41,11.41A122.17,122.17,0,0,0,130,115.4a116,116,0,0,0,18.92-3.47C150.38,111.54,157.44,109.17,162.38,107.42Z" transform="translate(0 0)"/><rect class="cls-6" width="166.81" height="166.81"/></svg>