<svg baseProfile="basic" xmlns="http://www.w3.org/2000/svg" viewBox="0 0 100 25"><g fill="#FFF"><path d="M2.3 5.9l3.5 8.7 3.5-8.7h2.1L5.7 19.4.2 5.9h2.1zM20.1 7.7h-5v3H20v1.8h-4.9v4.2h5v1.8h-6.9V5.9h6.9v1.8zM29.4 11.9h5.2v.4c0 .9-.1 1.8-.3 2.5-.2.7-.6 1.3-1.1 1.9-1.2 1.3-2.6 2-4.4 2-1.8 0-3.3-.6-4.5-1.9-1.2-1.3-1.9-2.8-1.9-4.6 0-1.8.6-3.4 1.9-4.6 1.3-1.3 2.8-1.9 4.6-1.9 1 0 1.9.2 2.7.6.8.4 1.6 1 2.4 1.9l-1.3 1.3c-1-1.4-2.3-2.1-3.8-2.1-1.3 0-2.4.5-3.3 1.4-.9.9-1.3 2-1.3 3.4s.5 2.5 1.5 3.4c.9.8 2 1.3 3 1.3.9 0 1.8-.3 2.5-.9.7-.6 1.2-1.4 1.2-2.3h-3.1v-1.8zM43.7 11.9h5.2v.4c0 .9-.1 1.8-.3 2.5-.2.7-.6 1.3-1.1 1.9-1.2 1.3-2.6 2-4.4 2-1.8 0-3.3-.6-4.5-1.9-1.2-1.3-1.9-2.8-1.9-4.6 0-1.8.6-3.4 1.9-4.6 1.3-1.3 2.8-1.9 4.6-1.9 1 0 1.9.2 2.7.6.8.4 1.6 1 2.4 1.9L47 9.5c-1-1.4-2.3-2.1-3.8-2.1-1.3 0-2.4.5-3.3 1.4-.9.9-1.3 2-1.3 3.4s.5 2.5 1.5 3.4c.9.8 2 1.3 3 1.3.9 0 1.8-.3 2.5-.9.7-.6 1.2-1.4 1.2-2.3h-3.1v-1.8zM53.5 5.9v12.5h-1.9V5.9h1.9zM63.8 7.7h-5v3h4.9v1.8h-4.9v4.2h5v1.8h-6.9V5.9h6.9v1.8zM73.7 7.7l-1.5.9c-.3-.5-.6-.8-.8-1-.3-.2-.6-.3-1-.3-.5 0-1 .1-1.3.4-.3.3-.5.7-.5 1.1 0 .6.5 1.1 1.4 1.5l1.2.5c1 .4 1.8.9 2.2 1.5s.7 1.3.7 2.2c0 1.2-.4 2.1-1.2 2.9-.8.8-1.7 1.1-2.9 1.1-1.1 0-2-.3-2.7-1-.7-.5-1.2-1.4-1.3-2.5l1.9-.4c.1.7.2 1.2.5 1.5.4.5 1 .8 1.7.8.6 0 1.1-.2 1.5-.6.4-.4.6-.9.6-1.5 0-.2 0-.5-.1-.7l-.3-.6c-.1-.2-.3-.3-.6-.5-.2-.1-.5-.3-.8-.4l-1.2-.5c-1.7-.7-2.6-1.8-2.6-3.2 0-.9.4-1.7 1.1-2.4.7-.6 1.6-1 2.7-1 1.3.1 2.5.8 3.3 2.2z"/></g></svg>