<?xml version="1.0" encoding="utf-8"?>
<!-- Generator: Adobe Illustrator 18.1.1, SVG Export Plug-In . SVG Version: 6.00 Build 0)  -->
<!DOCTYPE svg PUBLIC "-//W3C//DTD SVG 1.1 Basic//EN" "http://www.w3.org/Graphics/SVG/1.1/DTD/svg11-basic.dtd">
<svg version="1.1" baseProfile="basic" id="Layer_1"
	 xmlns="http://www.w3.org/2000/svg" xmlns:xlink="http://www.w3.org/1999/xlink" x="0px" y="0px" viewBox="0 0 100 25"
	 xml:space="preserve">
<g>
	<path fill="#FFFFFF" d="M2.3,5.9l3.5,8.7l3.5-8.7h2.1L5.7,19.4L0.2,5.9H2.3z"/>
	<path fill="#FFFFFF" d="M20.1,7.7h-5v3H20v1.8h-4.9v4.2h5v1.8h-6.9V5.9h6.9V7.7z"/>
	<path fill="#FFFFFF" d="M29.4,11.9h5.2v0.4c0,0.9-0.1,1.8-0.3,2.5c-0.2,0.7-0.6,1.3-1.1,1.9c-1.2,1.3-2.6,2-4.4,2
		c-1.8,0-3.3-0.6-4.5-1.9c-1.2-1.3-1.9-2.8-1.9-4.6c0-1.8,0.6-3.4,1.9-4.6c1.3-1.3,2.8-1.9,4.6-1.9c1,0,1.9,0.2,2.7,0.6
		c0.8,0.4,1.6,1,2.4,1.9l-1.3,1.3c-1-1.4-2.3-2.1-3.8-2.1c-1.3,0-2.4,0.5-3.3,1.4c-0.9,0.9-1.3,2-1.3,3.4c0,1.4,0.5,2.5,1.5,3.4
		c0.9,0.8,2,1.3,3,1.3c0.9,0,1.8-0.3,2.5-0.9c0.7-0.6,1.2-1.4,1.2-2.3h-3.1V11.9z"/>
	<path fill="#FFFFFF" d="M43.7,11.9h5.2v0.4c0,0.9-0.1,1.8-0.3,2.5c-0.2,0.7-0.6,1.3-1.1,1.9c-1.2,1.3-2.6,2-4.4,2
		c-1.8,0-3.3-0.6-4.5-1.9c-1.2-1.3-1.9-2.8-1.9-4.6c0-1.8,0.6-3.4,1.9-4.6c1.3-1.3,2.8-1.9,4.6-1.9c1,0,1.9,0.2,2.7,0.6
		c0.8,0.4,1.6,1,2.4,1.9L47,9.5c-1-1.4-2.3-2.1-3.8-2.1c-1.3,0-2.4,0.5-3.3,1.4c-0.9,0.9-1.3,2-1.3,3.4c0,1.4,0.5,2.5,1.5,3.4
		c0.9,0.8,2,1.3,3,1.3c0.9,0,1.8-0.3,2.5-0.9c0.7-0.6,1.2-1.4,1.2-2.3h-3.1V11.9z"/>
	<path fill="#FFFFFF" d="M53.5,5.9v12.5h-1.9V5.9H53.5z"/>
	<path fill="#FFFFFF" d="M63.8,7.7h-5v3h4.9v1.8h-4.9v4.2h5v1.8h-6.9V5.9h6.9V7.7z"/>
	<path fill="#FFFFFF" d="M73.7,7.7l-1.5,0.9c-0.3-0.5-0.6-0.8-0.8-1c-0.3-0.2-0.6-0.3-1-0.3c-0.5,0-1,0.1-1.3,0.4
		c-0.3,0.3-0.5,0.7-0.5,1.1c0,0.6,0.5,1.1,1.4,1.5l1.2,0.5c1,0.4,1.8,0.9,2.2,1.5s0.7,1.3,0.7,2.2c0,1.2-0.4,2.1-1.2,2.9
		c-0.8,0.8-1.7,1.1-2.9,1.1c-1.1,0-2-0.3-2.7-1C66.6,17,66.1,16.1,66,15l1.9-0.4c0.1,0.7,0.2,1.2,0.5,1.5c0.4,0.5,1,0.8,1.7,0.8
		c0.6,0,1.1-0.2,1.5-0.6c0.4-0.4,0.6-0.9,0.6-1.5c0-0.2,0-0.5-0.1-0.7c-0.1-0.2-0.2-0.4-0.3-0.6c-0.1-0.2-0.3-0.3-0.6-0.5
		c-0.2-0.1-0.5-0.3-0.8-0.4l-1.2-0.5c-1.7-0.7-2.6-1.8-2.6-3.2c0-0.9,0.4-1.7,1.1-2.4c0.7-0.6,1.6-1,2.7-1
		C71.7,5.6,72.9,6.3,73.7,7.7z"/>
	<path fill="#FFFFFF" d="M76.5,17.5c0-0.3,0.1-0.6,0.3-0.8c0.2-0.2,0.5-0.3,0.8-0.3c0.3,0,0.6,0.1,0.8,0.3c0.2,0.2,0.3,0.5,0.3,0.8
		c0,0.3-0.1,0.6-0.3,0.8c-0.2,0.2-0.5,0.3-0.8,0.3c-0.3,0-0.6-0.1-0.8-0.3C76.7,18.1,76.5,17.8,76.5,17.5z"/>
	<path fill="#FFFFFF" d="M84,5.9v12.5h-1.9V5.9H84z"/>
	<path fill="#FFFFFF" d="M86.7,12.1c0-1.8,0.6-3.3,1.9-4.5c1.3-1.3,2.8-1.9,4.6-1.9c1.8,0,3.3,0.6,4.6,1.9c1.3,1.3,1.9,2.8,1.9,4.6
		c0,1.8-0.6,3.3-1.9,4.6c-1.3,1.3-2.9,1.9-4.7,1.9c-1.6,0-3.1-0.6-4.4-1.7C87.4,15.7,86.7,14.1,86.7,12.1z M88.6,12.1
		c0,1.4,0.5,2.5,1.4,3.4c0.9,0.9,2,1.3,3.2,1.3c1.3,0,2.4-0.5,3.3-1.4c0.9-0.9,1.4-2,1.4-3.4c0-1.3-0.4-2.5-1.3-3.4
		c-0.9-0.9-2-1.4-3.3-1.4c-1.3,0-2.4,0.5-3.3,1.4C89,9.7,88.6,10.8,88.6,12.1z"/>
</g>
</svg>
