<svg id="Layer_1" data-name="Layer 1" xmlns="http://www.w3.org/2000/svg" viewBox="0 0 29.42 96.77"><defs><style>.cls-1{fill:#fff}</style></defs><title>asparagus</title><path class="cls-1" d="M10.66 24.81a38.82 38.82 0 0 1 2.62 3.91c.71 1.36 1.1 2.88 1.87 4.36 1.37-3 1.44-6.51 4-9.29a22.41 22.41 0 0 1 .12 7.51A27.19 27.19 0 0 0 19 36c1 11.08 1.29 22.19 1.15 33.3-.11 8.31-.55 16.61-.86 24.92 0 .79-.19 1.57-.31 2.51h-8.13v-2.92c0-14.23 0-28.46.07-42.69 0-5.19.52-10.37.7-15.57a19.53 19.53 0 0 0-.48-4c-.38-2.18-.84-4.34-1.27-6.51zM.65 14.07a8.58 8.58 0 0 1 2.85 4.25c.5 1.52.74 3.12 1.38 4.68 1.38-2.88 1.57-6.17 3.7-8.93a3 3 0 0 1 .16 2.59 34 34 0 0 0 0 14.95 43.86 43.86 0 0 1 .41 9.29C9 53.13 8.71 65.35 8.49 77.57c-.05 2.87 0 5.74 0 8.81H1.17a18.23 18.23 0 0 1-.24-2C.61 66.57.57 48.76 1.34 31c0-1 .18-2.07.24-3.11a18.36 18.36 0 0 0-.64-7.59c-.67-1.9-.65-4-.94-6.07zm18.92 1.45a12.72 12.72 0 0 1 4.48 7.67h.61a13.94 13.94 0 0 0 .5-1.55c.38-1.87.63-3.78 1.12-5.62a16 16 0 0 1 1.41-2.89l.6.12c.15 1.31.34 2.61.43 3.92a8.51 8.51 0 0 1-.07 2.39c-.92 4.23 0 8.42.13 12.62.28 9.5.66 19 .63 28.51 0 8.14-.58 16.28-.9 24.42 0 .39-.09.78-.15 1.33H22v-3c.09-9.5.35-19 .22-28.52-.09-6.62-.73-13.24-1.11-19.85a8.18 8.18 0 0 1 .08-2.14 29.49 29.49 0 0 0-1.2-16c-.19-.53-.29-.93-.42-1.41z"/><path class="cls-1" d="M10.79 17.19c5.17 3.22 6.51 7.18 4.28 11.69-1.47-1.9-3-3.8-4.41-5.74a2.43 2.43 0 0 1-.46-1.49c.11-1.41.36-2.8.59-4.46zM5 18.75a13.6 13.6 0 0 0-4.36-6.4 1.36 1.36 0 0 1-.36-1.06c.18-1.55.45-3.09.77-5.2 2.43 2.83 4.15 5.33 5 8.36.43 1.43-.4 2.55-1.05 4.3zm14.71-11.3c4.48 3.36 5.92 7.32 4.41 11.35-1.44-1.76-2.88-3.49-4.28-5.26a2.15 2.15 0 0 1-.51-1.26c.06-1.49.22-2.97.38-4.83zm-5.64 2.29l2.53 4.56-2.6 3.61-2.86-2.18 2.24-5.89zm8.54-1.82C20.05 6.74 20.1 5 20.92 3c.35-.86.64-1.74 1.11-3l2.91 4.33zM6.13 4.62L4 7.5C1.45 4.72.77 5.6 3.57.16a10.9 10.9 0 0 1 2.56 4.46zm19.78 8.82c-.68-1.18-1.39-2.22-1.9-3.34-.83-1.79.44-2.89 1.7-4.4l2.21 5.48zm-8.53 2.69c.5 1.64 1.05 3.26 1.48 4.92.25 1 .16 1-1.34 2.36-.72-1.29-1.48-2.54-2.12-3.85a1.73 1.73 0 0 1 0-1.32 21.74 21.74 0 0 1 1.31-2.18zM6.94 5.93c.54 1.88 1 3.58 1.52 5.29.33 1.17-.38 1.73-1.32 2.22-.43-.89-.82-1.75-1.25-2.59-1.19-2.3-1.15-2.6 1.05-4.92z"/></svg>