<svg id="Layer_1" data-name="Layer 1" xmlns="http://www.w3.org/2000/svg" viewBox="0 0 29.42 96.77"><defs><style>.cls-1{fill:#fff;}</style></defs><title>asparagus</title><path class="cls-1" d="M10.66,24.81a38.82,38.82,0,0,1,2.62,3.91c0.71,1.36,1.1,2.88,1.87,4.36,1.37-3,1.44-6.51,4-9.29a22.41,22.41,0,0,1,.12,7.51A27.19,27.19,0,0,0,19,36c1,11.08,1.29,22.19,1.15,33.3-0.11,8.31-.55,16.61-0.86,24.92,0,0.79-.19,1.57-0.31,2.51H10.85c0-1.05,0-2,0-2.92,0-14.23,0-28.46.07-42.69,0-5.19.52-10.37,0.7-15.57a19.53,19.53,0,0,0-.48-4c-0.38-2.18-.84-4.34-1.27-6.51Z"/><path class="cls-1" d="M0.65,14.07A8.58,8.58,0,0,1,3.5,18.32C4,19.84,4.24,21.44,4.88,23c1.38-2.88,1.57-6.17,3.7-8.93a3,3,0,0,1,.16,2.59,34,34,0,0,0,0,14.95,43.86,43.86,0,0,1,.41,9.29C9,53.13,8.71,65.35,8.49,77.57c-0.05,2.87,0,5.74,0,8.81H1.17a18.23,18.23,0,0,1-.24-2C0.61,66.57.57,48.76,1.34,31c0-1,.18-2.07.24-3.11A18.36,18.36,0,0,0,.94,20.3c-0.67-1.9-.65-4-0.94-6.07Z"/><path class="cls-1" d="M19.57,15.52a12.72,12.72,0,0,1,4.48,7.67l0.61,0a13.94,13.94,0,0,0,.5-1.55c0.38-1.87.63-3.78,1.12-5.62a16,16,0,0,1,1.41-2.89l0.6,0.12c0.15,1.31.34,2.61,0.43,3.92a8.51,8.51,0,0,1-.07,2.39c-0.92,4.23,0,8.42.13,12.62,0.28,9.5.66,19,.63,28.51,0,8.14-.58,16.28-0.9,24.42,0,0.39-.09.78-0.15,1.33H22c0-1,0-2,0-3,0.09-9.5.35-19,.22-28.52-0.09-6.62-.73-13.24-1.11-19.85a8.18,8.18,0,0,1,.08-2.14,29.49,29.49,0,0,0-1.2-16C19.8,16.4,19.7,16,19.57,15.52Z"/><path class="cls-1" d="M10.79,17.19c5.17,3.22,6.51,7.18,4.28,11.69-1.47-1.9-3-3.8-4.41-5.74a2.43,2.43,0,0,1-.46-1.49C10.31,20.24,10.56,18.85,10.79,17.19Z"/><path class="cls-1" d="M5,18.75A13.6,13.6,0,0,0,.64,12.35a1.36,1.36,0,0,1-.36-1.06C0.46,9.74.73,8.2,1.05,6.09c2.43,2.83,4.15,5.33,5,8.36C6.48,15.88,5.65,17,5,18.75Z"/><path class="cls-1" d="M19.71,7.45c4.48,3.36,5.92,7.32,4.41,11.35-1.44-1.76-2.88-3.49-4.28-5.26a2.15,2.15,0,0,1-.51-1.26C19.39,10.79,19.55,9.31,19.71,7.45Z"/><path class="cls-1" d="M14.07,9.74L16.6,14.3,14,17.91l-2.86-2.18,2.24-5.89Z"/><path class="cls-1" d="M22.61,7.92C20.05,6.74,20.1,5,20.92,3c0.35-.86.64-1.74,1.11-3l2.91,4.33Z"/><path class="cls-1" d="M6.13,4.62L4,7.5C1.45,4.72.77,5.6,3.57,0.16A10.9,10.9,0,0,1,6.13,4.62Z"/><path class="cls-1" d="M25.91,13.44c-0.68-1.18-1.39-2.22-1.9-3.34-0.83-1.79.44-2.89,1.7-4.4l2.21,5.48Z"/><path class="cls-1" d="M17.38,16.13c0.5,1.64,1.05,3.26,1.48,4.92,0.25,1,.16,1-1.34,2.36-0.72-1.29-1.48-2.54-2.12-3.85a1.73,1.73,0,0,1,0-1.32,21.74,21.74,0,0,1,1.31-2.18Z"/><path class="cls-1" d="M6.94,5.93c0.54,1.88,1,3.58,1.52,5.29,0.33,1.17-.38,1.73-1.32,2.22-0.43-.89-0.82-1.75-1.25-2.59C4.7,8.55,4.74,8.25,6.94,5.93Z"/></svg>