<svg id="Layer_1" data-name="Layer 1" xmlns="http://www.w3.org/2000/svg" viewBox="0 0 49.8 97.8"><defs><style>.cls-1{fill:none;}.cls-2{fill:#fff;}</style></defs><title>beet</title><rect class="cls-1" y="1" width="49.8" height="96.58"/><path class="cls-2" d="M17.28,0c3.07,1,4.81,3.29,5.87,6.27,0.63,1.76,1.58,3.41,2.37,5.12a38.13,38.13,0,0,1,1.53,3.51,21.42,21.42,0,0,0,4,7.11c0.2,0.23.36,0.49,0.56,0.72a9.89,9.89,0,0,1,2,9.24A22,22,0,0,0,33,36.64a19.21,19.21,0,0,1-1.16,6.43,7.34,7.34,0,0,0-.41,2.31A32.68,32.68,0,0,0,31.56,49c0.26,3.43-1.6,6-3.62,8.49a98.47,98.47,0,0,0-8.65-37.38c4.16,12.62,6.38,25.52,5.4,39,6,0.6,11.6,1.9,15.23,7.48C37.8,68.34,35.3,69,32.89,70a22.17,22.17,0,0,0,7.69-1.79c1.17,3.53,1.65,7,0,10.23-3,5.83-7.52,9.82-14.4,10.39a1.47,1.47,0,0,0-1.6.91c-0.39,1.14-.68,2.33.28,3.25A4.39,4.39,0,0,1,26,97.48a2.41,2.41,0,0,1-.16.32,10.6,10.6,0,0,0-.15-1.8A3,3,0,0,0,25,94.4c-1.83-1.4-2.2-3.23-1.6-5.55-5.6-.74-9.29-4.19-12.82-8.39l6,0.32V80.41c-0.58-.13-1.28-0.23-2-0.41-1.18-.27-2.35-0.6-3.53-0.87C9,78.67,8.33,77.23,8.2,75a25,25,0,0,0,11.7,1.13A27.14,27.14,0,0,1,8.12,73.29c0.36-3.63,2.46-6.34,4.81-8.91A16.06,16.06,0,0,1,22,59.45c0.37-2,1-4,.51-6.1a4.19,4.19,0,0,0-1.85-2.81l-3.06-2a7.34,7.34,0,0,1-3.68-6.7c0-1.21-.14-2.43-0.22-3.64a4.52,4.52,0,0,0-1.47-3c-1-.93-1.94-1.84-2.9-2.78a6.77,6.77,0,0,1-1.79-7.71c0.31-.86.6-1.72,1-2.57a7.32,7.32,0,0,0,0-5.51c-0.32-.85-0.63-1.71-0.94-2.57a8,8,0,0,1,1.2-7.94,49.55,49.55,0,0,1,3.91-4.58A11.87,11.87,0,0,1,15.09,0h2.19Z"/></svg>