<svg id="Layer_1" data-name="Layer 1" xmlns="http://www.w3.org/2000/svg" viewBox="0 0 65.7 96.58"><defs><style>.cls-1{fill:#fff;}</style></defs><title>bell-pepper</title><path class="cls-1" d="M49.18,34.6c0.3-3.63-1.1-6.71-2.84-9.68A12.38,12.38,0,0,1,62.43,30a27.45,27.45,0,0,1,2.84,10.87,130,130,0,0,1-1.92,35.27A28.78,28.78,0,0,1,59,87c-1.87,2.71-4.21,4.81-7.63,5.23a39.07,39.07,0,0,1-4.47,0c1-3.15,2.14-5.86,1.59-8.94-0.24.63-.43,1.29-0.73,1.89-1.08,2.16-1.9,4.53-3.36,6.4a12.13,12.13,0,0,1-19.49.09,55.09,55.09,0,0,1-3.82-6.18c-0.41-.69-0.73-1.45-1.31-2.6a7.76,7.76,0,0,0,.59,4.48c0.42,1.34,1,2.64,1.59,4.22-4.58.6-8.44-.21-11.47-3.69A17.83,17.83,0,0,1,6.62,80.4C5.34,75.12,4.14,69.81,3.21,64.46,2.08,58,1.25,51.54.34,45.07a30.48,30.48,0,0,1,.25-10.5c1.3-6.26,5.5-10.08,11.85-10.92a31.48,31.48,0,0,1,8.92.34c-2,3.15-3.76,6.13-4.09,10.2,0.58-1,.9-1.59,1.24-2.15,0.87-1.43,1.68-2.9,2.65-4.26,6.42-9.1,21-8.06,25.89,2.14C47.79,31.47,48.47,33,49.18,34.6Z"/><path class="cls-1" d="M37.37,18.8l-9.84.53a2,2,0,0,1,.27-0.57A9,9,0,0,0,30,11.38a14.67,14.67,0,0,1,.79-6.14c1-3.27,3.5-5,6.94-5.2A15.44,15.44,0,0,1,45.24,1.3L43.7,6.66C42.51,6.42,41.56,6.17,40.59,6c-2.91-.41-4.41.53-5.39,3.26a7.09,7.09,0,0,0,.28,6.06Z"/></svg>