<svg id="Layer_1" data-name="Layer 1" xmlns="http://www.w3.org/2000/svg" viewBox="0 0 49.8 96.6"><defs><style>.cls-1{fill:none;}.cls-2{fill:#fff;}</style></defs><title>carrot</title><rect class="cls-1" width="49.8" height="96.58"/><path class="cls-2" d="M26.49,43c-1.83-.24-3.68-0.38-5.47-0.76a22,22,0,0,1-3.52-1.3,3.35,3.35,0,0,1-2.27-4.16v0c0.62-3.19.9-6.45,1.72-9.58,1-3.86,3.9-5.8,7.9-5.81s6.94,1.91,8,5.73a57.71,57.71,0,0,1,1.66,9.36c0.31,3.16.22,6.35,0.24,9.53,0,1.85-.19,2.21-2,2.67s-3.61.63-5.55,1a13.84,13.84,0,0,0,7.33.17c0,0.73.11,1.24,0.09,1.75A202.41,202.41,0,0,1,30.2,87.34,42.28,42.28,0,0,1,28.78,92a13.86,13.86,0,0,1-1.45,3c-1.4,2.11-3.45,2.15-4.82,0a12.29,12.29,0,0,1-1.66-3.6c-1.08-4.29-2.11-8.61-3-12.95-0.59-3-.88-6-1.28-9-0.1-.79-0.11-1.58-0.17-2.5,3.22,0.54,6.2,1.68,9.3.5a19.94,19.94,0,0,1-9.58-2.82,171.55,171.55,0,0,1-1-22.76,48.59,48.59,0,0,0,5.66,1.33,48,48,0,0,0,5.7,0ZM23.61,0h2.63l1.13,15.34h0.49L31.93,4l2.63,0.75L30.79,20.24A13,13,0,0,0,19.58,20C18.08,15,17,9.94,15.8,4.74l2.57-.79,4.1,11.5c0.76-1.93.53-3.61,0.63-5.23s0.09-3.22.17-4.88S23.49,2,23.61,0Z"/></svg>