<svg id="Layer_1" data-name="Layer 1" xmlns="http://www.w3.org/2000/svg" viewBox="0 0 19.64 96.58"><defs><style>.cls-1{fill:#fff}</style></defs><title>carrot</title><path class="cls-1" d="M11.41 43c-1.83-.24-3.68-.38-5.47-.76a22 22 0 0 1-3.52-1.3 3.35 3.35 0 0 1-2.26-4.2c.62-3.19.9-6.45 1.72-9.58 1-3.86 3.9-5.8 7.9-5.81s6.94 1.91 8 5.73a57.71 57.71 0 0 1 1.66 9.36c.31 3.16.22 6.35.24 9.53 0 1.85-.19 2.21-2 2.67s-3.61.63-5.55.95a13.84 13.84 0 0 0 7.33.17c0 .73.11 1.24.09 1.75-.58 12.05-1.71 24-4.43 35.83A42.28 42.28 0 0 1 13.7 92a13.86 13.86 0 0 1-1.45 3c-1.4 2.11-3.45 2.15-4.82 0a12.29 12.29 0 0 1-1.66-3.6c-1.08-4.29-2.11-8.61-3-12.95-.59-3-.88-6-1.28-9-.1-.79-.11-1.58-.17-2.5 3.22.54 6.2 1.68 9.3.5a19.94 19.94 0 0 1-9.58-2.82A171.55 171.55 0 0 1 0 41.87a48.59 48.59 0 0 0 5.66 1.33 48 48 0 0 0 5.7 0zM8.53 0h2.63l1.13 15.34h.49L16.85 4l2.63.75-3.77 15.49A13 13 0 0 0 4.5 20C3 15 1.94 9.94.72 4.74l2.57-.79 4.1 11.5c.76-1.93.53-3.61.63-5.23s.09-3.22.17-4.88S8.41 2 8.53 0z"/></svg>