<svg id="Layer_1" data-name="Layer 1" xmlns="http://www.w3.org/2000/svg" viewBox="0 0 46.61 90"><defs><style>.cls-1{fill:#fff;}</style></defs><title>celery</title><path class="cls-1" d="M44.91,25.6a1.06,1.06,0,0,0-.5.27c-0.33.19-.67,0.37-1,0.6A0.51,0.51,0,0,0,43.65,26a1.43,1.43,0,0,0-.75.19c-0.14-.33.31-0.52,0.51-0.69s0.49-.51.74-0.76a0.93,0.93,0,0,0,.36-0.43,4.24,4.24,0,0,0-1.95.18A6.16,6.16,0,0,0,40.5,26a5,5,0,0,1,.62-0.8,7.7,7.7,0,0,1,.64-0.75A1,1,0,0,0,42.18,24a3.78,3.78,0,0,0-.48,0,5,5,0,0,1-.93.08c0-.11,0-0.23,0-0.34a7.55,7.55,0,0,0-3.1,1.79c-0.28.22-.63,0.28-0.93,0.48a5.75,5.75,0,0,0-.78.74c-0.53.53-1.12,1.3-2,1.18,0.49-.6.67-1.42,1.44-1.81a7.86,7.86,0,0,0,1.39-.88,11.52,11.52,0,0,0,1.79-1.7,9.24,9.24,0,0,1,.78-0.86,17.14,17.14,0,0,1,1.92-1.61,1,1,0,0,0,.45-0.56,1.56,1.56,0,0,1-1.09.2A1.4,1.4,0,0,1,41.24,20a1.46,1.46,0,0,0,.52-1.09,1.22,1.22,0,0,1-.68.3,1.41,1.41,0,0,0-.87.28,1.5,1.5,0,0,0-.46.4,2.21,2.21,0,0,1-.21.29,1.29,1.29,0,0,1-1,.4,1,1,0,0,1,.36-0.73,7.15,7.15,0,0,1,1.11-1.23,3.45,3.45,0,0,1,1.12-.58c0.23-.07,1-0.16.89-0.5-0.27,0-.56,0-0.84-0.09a1.88,1.88,0,0,1-.47-0.1c-0.09,0-.15-0.15-0.23-0.19a1.93,1.93,0,0,0-.59-0.11c0.17-.61,1.09-0.77,1.57-1.12a1.79,1.79,0,0,0,.68-0.5,1.32,1.32,0,0,0-.88-0.21,2,2,0,0,0,.77-0.76,2.29,2.29,0,0,1-.84.26,4.85,4.85,0,0,1,.3-0.89c0.17-.32.49-0.55,0.67-0.86a3.39,3.39,0,0,0,.33-1.24c0-.23.31-1.11-0.08-1.13A0.77,0.77,0,0,0,42,11a10.15,10.15,0,0,0-1.43,1,0.78,0.78,0,0,1-.29.37c0-.29,0-0.59,0-0.89-0.14.18-.3,0.39-0.42,0.59a2.79,2.79,0,0,1-.4.8,2.92,2.92,0,0,0,0-.64,1.32,1.32,0,0,1-.42.59,2,2,0,0,1-.71.59c0-.06,0-0.12,0-0.18a3.76,3.76,0,0,1-.89.5,3,3,0,0,1-.48-0.53A0.93,0.93,0,0,1,37.47,13c0.32-.09,1.32-0.08,1.15-0.67-0.2,0-1.17.12-1-.25a2.43,2.43,0,0,1,1.07-.29,1.39,1.39,0,0,0,1-1.36A4.77,4.77,0,0,0,39,11a3.39,3.39,0,0,0,.93-2,1.9,1.9,0,0,0-.07-1.57,7.45,7.45,0,0,0-.36.87,4,4,0,0,1-.19.54,3.13,3.13,0,0,1-.6.59,1,1,0,0,0-.24-0.88,6.57,6.57,0,0,1-.43.9c-0.18.19-.46,0.23-0.65,0.41s0,0.1-.07.14a1.12,1.12,0,0,1-.68.34,2.32,2.32,0,0,1,.11-0.77,3.45,3.45,0,0,0,.53-1.32,2.25,2.25,0,0,0-.45.56,3,3,0,0,1-.78.7A1.77,1.77,0,0,0,36,8.77a3.1,3.1,0,0,0-.5.4c-0.19.22-.29,0.49-0.49,0.69a4,4,0,0,0-.46.38,3.21,3.21,0,0,0-.17.36,1,1,0,0,1-.46.56,2.66,2.66,0,0,1,.07-1.57C34,9.41,34.21,9.23,34.33,9a2.31,2.31,0,0,0,.19-1.29,2,2,0,0,1-.37.22c0-.43.16-0.83,0.13-1.25a2.63,2.63,0,0,0-.5.39c0-.39-0.29-1.71-0.72-1.73a2.72,2.72,0,0,1-.37,1.28,4.3,4.3,0,0,0-.31.77,1,1,0,0,1-.19.55c-0.36-.73.1-1.53,0.05-2.3C32,5.8,32,6.17,31.73,6.32c-0.26-.49-0.14-1.25-0.41-1.76-0.05.14-.16,0.24-0.23,0.38s-0.12.57-.23,0.83c0-.21-0.09-0.41-0.12-0.62a2.06,2.06,0,0,0-.26-0.89,3.43,3.43,0,0,0-.26.61c0-.41.09-1.25-0.62-1.11-0.07.24-.18,0.46-0.23,0.71a0.53,0.53,0,0,1-.28-0.4,1.13,1.13,0,0,0-.55-0.91c0,0.63,0,1.29,0,1.92a8.34,8.34,0,0,1-.66-0.67A3.11,3.11,0,0,0,28,5.82a6.59,6.59,0,0,1,.19,1.07,6.52,6.52,0,0,0,.52.94,1,1,0,0,1,.17.82c-0.18.21-.25-0.13-0.34-0.26a4.13,4.13,0,0,0-.78-0.91C27.2,7,27.2,7.15,27.16,7.77a1.66,1.66,0,0,0-.9-0.67c0,0.47.67,0.6,0.58,1.1a2.53,2.53,0,0,0-.11.67c0,0.47.27,0.44,0.62,0.66a3.12,3.12,0,0,1,.61.56,7.55,7.55,0,0,1,.86,1.19c0.25,0.42.63,0.75,0.86,1.19s0.38,0.56.54,0.88a3.47,3.47,0,0,0,.42.72c0.26,0.34.45,0.73,0.72,1.06a1.32,1.32,0,0,1,.4.64,5.68,5.68,0,0,1,0,1,16.6,16.6,0,0,1-.17,1.85c0,0.41-.16.73-0.24,1.11A1.7,1.7,0,0,1,30.67,19a4.45,4.45,0,0,1-.44-1.58c0-.27.11-0.51,0.13-0.78s0.07-.73.06-1.1a3.47,3.47,0,0,0-.1-1.73,1.59,1.59,0,0,0-.6.66,2.21,2.21,0,0,1-.26.92,12.66,12.66,0,0,1-.36-2.26c-0.24.39-.33,0.91-0.61,1.28,0,0-.08-0.13-0.1-0.17-0.13.25-.18,0.53-0.31,0.78a4.85,4.85,0,0,1-.82-1.41c-0.08-.23-0.26-1.14-0.52-1.07a1,1,0,0,0-.31.72,0.92,0.92,0,0,1-.23,0s0-.11,0-0.15H25.88c0-1,1-1.51,1-2.53a2.41,2.41,0,0,0-.64.86,5,5,0,0,1-.33.83c-0.11.13-.44,0.24-0.54,0.07a1.94,1.94,0,0,1,.43-1.14,2.82,2.82,0,0,0,.48-1.22,0.71,0.71,0,0,1-.51.2,0.84,0.84,0,0,1,.46-0.75,0.76,0.76,0,0,0,.06-0.9,3.41,3.41,0,0,0-.49.72,1,1,0,0,0-.06-0.75c-0.15-.32-0.29-0.19-0.54,0a4.29,4.29,0,0,0-.9,1.41,1.12,1.12,0,0,1-1.35.84,1,1,0,0,1,.16-0.62c0.18-.24.41-0.45,0.6-0.69s0.37-.34.52-0.54a2.35,2.35,0,0,0,.23-0.53C24.63,8,24.8,7.58,25,7.2s0.72-1.09.08-1.44-0.68.49-1.23,0.42a2.94,2.94,0,0,1,.4-1.07,1.14,1.14,0,0,0,.35-0.77,1.48,1.48,0,0,0-.11-0.78,1.67,1.67,0,0,1-1.22.64A3.52,3.52,0,0,1,24.11,3a1.72,1.72,0,0,0,.42-0.45,1,1,0,0,0-.09-0.59C24.27,1.76,24.23,1.87,24,2a2.64,2.64,0,0,0-.51.42,2.44,2.44,0,0,1-.34.41,0.49,0.49,0,0,1-.59-0.08,1.72,1.72,0,0,1,0-.57c0-.3,0-0.61,0-0.9S22.41,0.44,22.41,0a1.1,1.1,0,0,0-.66.91c-0.19.6-.3,1.23-0.52,1.81a1,1,0,0,1-.47.61c0-.73.08-1.45,0-2.18a3.87,3.87,0,0,0-1,1.28,4,4,0,0,0-.5,1.31,5,5,0,0,0-.11,1.2,1.33,1.33,0,0,0-.35-0.47A5.56,5.56,0,0,1,18.59,4a9,9,0,0,1-.48-1.23,2.5,2.5,0,0,0-.53-1.13,7.82,7.82,0,0,0-.25,2.26C17.19,3.72,17.11,3.49,17,3.34a6.14,6.14,0,0,0-.12,1.36,0.76,0.76,0,0,0-.44-0.3c-0.26,0-.18.31-0.18,0.53,0,0.49,0,1,0,1.47A1.58,1.58,0,0,1,16,6.32c-0.26-.48-0.61-1.06-0.85-1.6-0.7.8-.53,2.16-0.51,3.16A5.66,5.66,0,0,0,14.19,7c-1.51.83,0.58,2,.34,3.22a1.09,1.09,0,0,0-.9-0.77c0,0.37,0,.76,0,1.12-1.15.22-.61-0.4-0.35-0.86a1.41,1.41,0,0,0,.08-1.47,0.62,0.62,0,0,0-.57.55c-0.5-.19.19-1.83-1-1.83,0,0.32.07,0.59,0,.9-0.86.26-.49-1.59-1.55-1.4a2.06,2.06,0,0,0-.09,1.46,1.49,1.49,0,0,0-.9-1.1C9.1,7.44,9.59,8.61,9.14,9A3.72,3.72,0,0,0,8.7,7.41a1.05,1.05,0,0,0-.29.65c-0.29-.4,0-1.07-0.27-1.51S7.35,6.36,7.48,7c-0.28-.18-0.53-1.06-1-0.78a1.45,1.45,0,0,0-.19,1.19C6,7.14,4.42,5.79,4.79,7.17,4.58,6.7,4.17,5.83,3.73,6.58,3.41,7.12,4,8,4.06,8.46a1.41,1.41,0,0,1-.85-1.06c-0.48-1-.78-0.33-0.57.48a1.24,1.24,0,0,0-.71-1A1.89,1.89,0,0,0,2,7.47a1.24,1.24,0,0,0-1-.41C1.1,7.49,1.24,8,1.35,8.38A1.46,1.46,0,0,0,.87,8.2,4.27,4.27,0,0,0,.94,9.6c0.14,0,.35.05,0.48,0,0,0.32.11,0.87-.33,0.85S0.78,10,.7,9.7C0.06,9.54,0,10.57,0,11a2.09,2.09,0,0,1,.75.08c-0.15.54,0,1,.65,0.73,0.13,0.64,1.86.46,2.43,0.63a5.77,5.77,0,0,1,1.93,1.06A9.42,9.42,0,0,1,4,13a1.76,1.76,0,0,1-1.09-.49,1.07,1.07,0,0,0-.48,0c0,0.12-.05.31,0,0.41C2,13,1.41,12.34,1,12.7s0,0.67,0,1c-0.17-.06-0.44,0-0.62,0a3.29,3.29,0,0,0,.07.69,2.17,2.17,0,0,1,.62-0.05C1,15.2,1.43,15,2.13,15a0.83,0.83,0,0,1,0,.33c-0.22,0-.47,0-0.69,0a1.27,1.27,0,0,0,0,.55c0.45,0.07.88-.11,1.33,0a0.83,0.83,0,0,1,0,.33c-0.12,0-.29,0-0.41,0a1.27,1.27,0,0,0,0,.55c0.44,0.07.61-.5,1.06-0.35a1.78,1.78,0,0,1,.51,1.22,2.13,2.13,0,0,1,1-1.08,2.08,2.08,0,0,0,0,.43,3,3,0,0,0,1.72-.56A2.12,2.12,0,0,1,8.35,16c1.06,0.16,3,.92,2.77,2.35a2.68,2.68,0,0,0-1.71-.64A3,3,0,0,0,7.68,18c-1.27.56-2,1.5-3.17,0.52a1,1,0,0,0,.69.82c-0.55.13-2.33,1-1.06,1.3,0.23,0,.86-0.41,1.06-0.08s-0.44.63-.62,0.66a2.39,2.39,0,0,0,.91,1.15c0.43,0.26.63,0,.7,0.5a2.18,2.18,0,0,1-.43,1,1.26,1.26,0,0,0-1.28.44,2.75,2.75,0,0,0,.58.08c0,0.27,0,.49-0.07.76-0.47,0-.71-0.44-1.19-0.41,0,0.25,0,.51,0,0.76-0.77.1-1.62-.11-2.41,0,0.39,0.25,2,.52,2.28.87s-0.23.86-.71,0.76a0.77,0.77,0,0,0,0,.35c0.61,0.21,1.82-.28,2.28,0s0.21,0.69.64,0.86,1.07-.26,1.29.21a0.55,0.55,0,0,1-.56.73,1.49,1.49,0,0,1,0,.19c1.34,0.3,2.71.39,4,.65a4,4,0,0,1,1.5.62,1.82,1.82,0,0,1,.18.17c-0.06,14.44-.56,41.57-0.56,46,0,5.84,1.79,13.11,8.46,13.11s7.87-1.19,7.87-2.39-1.37-4-4.22-6.32c-4.42-3.66-6.39-7.62-7.22-13.1S15,47.21,15,41.37a146.09,146.09,0,0,0-.68-17.79,6.19,6.19,0,0,1,1.54,1.47,2.35,2.35,0,0,1,.65,1.7c0,0.49,0,1,0,1.49-0.13,0-.31,0-0.44,0a2.28,2.28,0,0,0,.83,1.08c-0.07,9-.16,19.21-1.11,23.91C16.5,66.83,17.53,70.7,17.53,70.7c1.1-8.92,1.32-21.07,1.12-31.74a1,1,0,0,0,.65.17,6.63,6.63,0,0,1,.87.18C19.53,49.66,18.94,59.55,18.82,61c-0.23,3.66-.94,10.61-0.94,10.61a33.43,33.43,0,0,0,3.21,5.83c2.87-2,4.6-6.15,4.6-6.15-0.83-3.18-1-11.83-.85-14.89,0.06-1.44,0-10.09-.06-19a3,3,0,0,0,.62-0.17A1.08,1.08,0,0,0,25.72,37c-0.09,2.36-.19,4.31-0.29,5.43C25,47.58,25.43,68.57,26.49,71c0,0,.44-4.61,1-20.84,0,0-.16-6.34-0.39-13.89a2.93,2.93,0,0,1,.62-0.46c0.37-.22,1.49-0.62,1-1.2A1.15,1.15,0,0,0,29.26,34c-0.13,0-.21-0.07-0.34-0.07-0.1-.43.46-0.61,0.79-0.54,0,1.2-.54,2.19-0.65,3.35a3.45,3.45,0,0,0,0,.85,1.09,1.09,0,0,0,.49.67,154,154,0,0,0-2.11,24.9c-0.1,11.3-2.85,12-5.9,15.27,4.58,4,6.92,7,7.23,9.16,4-6.41,3.77-8.65,2.24-27.49a115.16,115.16,0,0,1-.17-17.32,0.87,0.87,0,0,1,.05-0.19A6.48,6.48,0,0,1,31.38,42c0.15-.22.29-0.46,0.45-0.68a3.67,3.67,0,0,1,.69-0.84,12,12,0,0,1,1.15-.74c0.81-.51,1.68-0.87,2.48-1.38,0.47-.29,1.62-0.68,1.79-1.28a3.4,3.4,0,0,1-.93,0c0.37-.33,1-0.38,1.2-0.93-0.1,0-.18.1-0.29,0.14a13.18,13.18,0,0,1-1.37.15c-0.17,0-1.25.3-1.36,0.05s1.75-.35,1.7-0.63c-0.23,0-1.06-.33-0.53-0.51,0.35-.12.8,0.23,1.16-0.05a0.91,0.91,0,0,0-.94-0.51A2.39,2.39,0,0,1,37,33.93a1.8,1.8,0,0,0,.51-0.85c0-.69-1,0.42-1.23.48a3.57,3.57,0,0,0,.31-0.6,3.43,3.43,0,0,0-.26-2,5.8,5.8,0,0,1-.1-1.16,1.7,1.7,0,0,0-.33-0.87c-0.21-.15-0.36,0-0.45.18a4.08,4.08,0,0,0-.15.67,4,4,0,0,1-.21,1.13c-0.42.63-1.08-1.55-1.12-1.6-0.08.57-.19,1.14-0.25,1.72a4.25,4.25,0,0,1-.1,1.24,0.93,0.93,0,0,1-1.15-.5,8.87,8.87,0,0,1,.08-1.36,1.71,1.71,0,0,1,.19-1.08,1.39,1.39,0,0,1,.73-0.8,6.93,6.93,0,0,1,1.18,0c0.19,0,.35-0.08.53-0.1,1.1-.16,2.23.06,3.33-0.08,0.83-.11,1.7-0.2,2.54-0.23a5.14,5.14,0,0,0,2.25-.43c0.53-.26,1.11-0.51,1.62-0.8a4.23,4.23,0,0,1,.89-0.45c0.27-.08.53-0.06,0.8-0.16A3.65,3.65,0,0,0,44.91,25.6ZM19,18.47a5.54,5.54,0,0,0,0-.77c0,0.58.93,1,.81,1.53a1.36,1.36,0,0,1-.94,0C18.41,18.89,18.86,18.75,19,18.47Zm-0.44,1.26a1.33,1.33,0,0,1,.55.1A3.34,3.34,0,0,0,20,19.69a1.5,1.5,0,0,1-.4.58c-0.26.29-.41,0.68-0.65,1V21.2C18.9,20.65,18.59,20.24,18.55,19.73ZM20,24a0.93,0.93,0,0,1-.44.81l-0.07,0a2.1,2.1,0,0,1-.15-0.33A5.38,5.38,0,0,1,20,24Zm0,6.57a3,3,0,0,1-.7-1.29c-0.09-.66.21-1.33,0.14-2a0.3,0.3,0,0,0-.17.1s0-.09,0-0.1c0.59-.22.84,0.11,0.84,0.63S20,28.71,20,29.09A5.8,5.8,0,0,1,20,30.57Zm5.39-1.09a8.77,8.77,0,0,0,0,1.67c0,0.23.19,1.52-.37,1a2.88,2.88,0,0,1-.07-1.65,13.43,13.43,0,0,0-.07-1.35,1.06,1.06,0,0,1,.48-1.28v0A2.45,2.45,0,0,1,25.37,29.48Zm7.25-13.11a6.4,6.4,0,0,1,.94-1.43c0.15-.16.69-0.42,0.84-0.12a2.09,2.09,0,0,1-.47,1,13.85,13.85,0,0,0-.66,1.43,8.92,8.92,0,0,1-1.07,2.55A6.74,6.74,0,0,1,32.61,16.37Zm-0.69,4.28a0.82,0.82,0,0,1,.85-0.55,1.11,1.11,0,0,1,1,0,2,2,0,0,1,.06.77,2.36,2.36,0,0,0-.65,0c0.53,0.38.28,0.77,0.13,1.29s-0.28,1.08-.4,1.65c-0.42.07-.48-0.25-0.69-0.55A1.86,1.86,0,0,1,32,22,4.27,4.27,0,0,1,31.92,20.64Zm-0.33,3.5a0.42,0.42,0,0,1,.73,0,0.45,0.45,0,0,1,.11.36c0,0.32-.16.14-0.34,0.32-0.48.47,0.13,1.55-.25,2.08a2.34,2.34,0,0,1-.19-1.29A4.82,4.82,0,0,1,31.59,24.15Zm-2.18,3.46c0,0.25,0,1.26-.47.78a3.92,3.92,0,0,1-.38-1.91,2.6,2.6,0,0,0-.32,1.43,5.77,5.77,0,0,1,.61,1.65c-1.23.14-.38-2-1.3-1.84-0.29,0-.21.47-0.21,0.74s0,0.79-.29.44a2.06,2.06,0,0,1-.05-0.8A1.89,1.89,0,0,1,27,27.16c0.25-.42,1.33.09,0.94-0.87-0.49,0-.83.16-0.91-0.34s0-.55.36-0.62a3.7,3.7,0,0,1,1.27.17,3.69,3.69,0,0,0,1.13,0,0,0,0,0,0,0-.06c-0.35-.1-1.85-0.54-1.14-0.83a4.58,4.58,0,0,1,1.57.16,1.72,1.72,0,0,1-.83-0.88,2.33,2.33,0,0,1,1.07.36,1.62,1.62,0,0,1,.2,1.26,1.5,1.5,0,0,1-.54.81A2.35,2.35,0,0,0,29.41,27.61Zm0.93,3.11c-0.4-.3-0.27-1.31-0.37-1.77a3.52,3.52,0,0,1-.11-1,2.09,2.09,0,0,1,.3-0.87,3.63,3.63,0,0,1,.26-0.6l0.11,0.11v2.78A2.37,2.37,0,0,1,30.34,30.72Z"/></svg>