<svg id="Layer_1" data-name="Layer 1" xmlns="http://www.w3.org/2000/svg" viewBox="0 0 46.61 90"><defs><style>.cls-1{fill:#fff}</style></defs><title>celery</title><path class="cls-1" d="M44.91 25.6a1.06 1.06 0 0 0-.5.27c-.33.19-.67.37-1 .6a.51.51 0 0 0 .24-.47 1.43 1.43 0 0 0-.75.19c-.14-.33.31-.52.51-.69s.49-.51.74-.76a.93.93 0 0 0 .36-.43 4.24 4.24 0 0 0-1.95.18A6.16 6.16 0 0 0 40.5 26a5 5 0 0 1 .62-.8 7.7 7.7 0 0 1 .64-.75 1 1 0 0 0 .42-.45 3.78 3.78 0 0 0-.48 0 5 5 0 0 1-.93.08v-.34a7.55 7.55 0 0 0-3.1 1.79c-.28.22-.63.28-.93.48a5.75 5.75 0 0 0-.78.74c-.53.53-1.12 1.3-2 1.18.49-.6.67-1.42 1.44-1.81a7.86 7.86 0 0 0 1.39-.88 11.52 11.52 0 0 0 1.79-1.7 9.24 9.24 0 0 1 .78-.86 17.14 17.14 0 0 1 1.92-1.61 1 1 0 0 0 .45-.56 1.56 1.56 0 0 1-1.09.2 1.4 1.4 0 0 1 .6-.71 1.46 1.46 0 0 0 .52-1.09 1.22 1.22 0 0 1-.68.3 1.41 1.41 0 0 0-.87.28 1.5 1.5 0 0 0-.46.4 2.21 2.21 0 0 1-.21.29 1.29 1.29 0 0 1-1 .4 1 1 0 0 1 .36-.73 7.15 7.15 0 0 1 1.11-1.23 3.45 3.45 0 0 1 1.12-.58c.23-.07 1-.16.89-.5-.27 0-.56 0-.84-.09a1.88 1.88 0 0 1-.47-.1c-.09 0-.15-.15-.23-.19a1.93 1.93 0 0 0-.59-.11c.17-.61 1.09-.77 1.57-1.12a1.79 1.79 0 0 0 .68-.5 1.32 1.32 0 0 0-.88-.21 2 2 0 0 0 .77-.76 2.29 2.29 0 0 1-.84.26 4.85 4.85 0 0 1 .3-.89c.17-.32.49-.55.67-.86a3.39 3.39 0 0 0 .33-1.24c0-.23.31-1.11-.08-1.13a.77.77 0 0 0-.41.4 10.15 10.15 0 0 0-1.43 1 .78.78 0 0 1-.29.37v-.89c-.14.18-.3.39-.42.59a2.79 2.79 0 0 1-.4.8 2.92 2.92 0 0 0 0-.64 1.32 1.32 0 0 1-.42.59 2 2 0 0 1-.71.59v-.18a3.76 3.76 0 0 1-.89.5 3 3 0 0 1-.48-.53.93.93 0 0 1 .51-.2c.32-.09 1.32-.08 1.15-.67-.2 0-1.17.12-1-.25a2.43 2.43 0 0 1 1.07-.29 1.39 1.39 0 0 0 1-1.36A4.77 4.77 0 0 0 39 11a3.39 3.39 0 0 0 .93-2 1.9 1.9 0 0 0-.07-1.57 7.45 7.45 0 0 0-.36.87 4 4 0 0 1-.19.54 3.13 3.13 0 0 1-.6.59 1 1 0 0 0-.24-.88 6.57 6.57 0 0 1-.43.9c-.18.19-.46.23-.65.41s0 .1-.07.14a1.12 1.12 0 0 1-.68.34 2.32 2.32 0 0 1 .11-.77 3.45 3.45 0 0 0 .53-1.32 2.25 2.25 0 0 0-.45.56 3 3 0 0 1-.78.7 1.77 1.77 0 0 0-.05-.74 3.1 3.1 0 0 0-.5.4c-.19.22-.29.49-.49.69a4 4 0 0 0-.46.38 3.21 3.21 0 0 0-.17.36 1 1 0 0 1-.46.56 2.66 2.66 0 0 1 .07-1.57c.01-.18.22-.36.34-.59a2.31 2.31 0 0 0 .19-1.29 2 2 0 0 1-.37.22c0-.43.16-.83.13-1.25a2.63 2.63 0 0 0-.5.39c0-.39-.29-1.71-.72-1.73a2.72 2.72 0 0 1-.37 1.28 4.3 4.3 0 0 0-.31.77 1 1 0 0 1-.19.55c-.36-.73.1-1.53.05-2.3-.24.16-.24.53-.51.68-.26-.49-.14-1.25-.41-1.76-.05.14-.16.24-.23.38s-.12.57-.23.83c0-.21-.09-.41-.12-.62a2.06 2.06 0 0 0-.26-.89 3.43 3.43 0 0 0-.26.61c0-.41.09-1.25-.62-1.11-.07.24-.18.46-.23.71a.53.53 0 0 1-.28-.4 1.13 1.13 0 0 0-.55-.91v1.92a8.34 8.34 0 0 1-.66-.67A3.11 3.11 0 0 0 28 5.82a6.59 6.59 0 0 1 .19 1.07 6.52 6.52 0 0 0 .52.94 1 1 0 0 1 .17.82c-.18.21-.25-.13-.34-.26a4.13 4.13 0 0 0-.78-.91c-.56-.48-.56-.33-.6.29a1.66 1.66 0 0 0-.9-.67c0 .47.67.6.58 1.1a2.53 2.53 0 0 0-.11.67c0 .47.27.44.62.66a3.12 3.12 0 0 1 .61.56 7.55 7.55 0 0 1 .86 1.19c.25.42.63.75.86 1.19s.38.56.54.88a3.47 3.47 0 0 0 .42.72c.26.34.45.73.72 1.06a1.32 1.32 0 0 1 .4.64 5.68 5.68 0 0 1 0 1 16.6 16.6 0 0 1-.17 1.85c0 .41-.16.73-.24 1.11a1.7 1.7 0 0 1-.68-.73 4.45 4.45 0 0 1-.44-1.58c0-.27.11-.51.13-.78s.07-.73.06-1.1a3.47 3.47 0 0 0-.1-1.73 1.59 1.59 0 0 0-.6.66 2.21 2.21 0 0 1-.26.92 12.66 12.66 0 0 1-.36-2.26c-.24.39-.33.91-.61 1.28 0 0-.08-.13-.1-.17-.13.25-.18.53-.31.78a4.85 4.85 0 0 1-.82-1.41c-.08-.23-.26-1.14-.52-1.07a1 1 0 0 0-.31.72.92.92 0 0 1-.23 0v-.15h-.32c0-1 1-1.51 1-2.53a2.41 2.41 0 0 0-.64.86 5 5 0 0 1-.33.83c-.11.13-.44.24-.54.07a1.94 1.94 0 0 1 .43-1.14 2.82 2.82 0 0 0 .48-1.22.71.71 0 0 1-.51.2.84.84 0 0 1 .46-.75.76.76 0 0 0 .06-.9 3.41 3.41 0 0 0-.49.72 1 1 0 0 0-.06-.75c-.15-.32-.29-.19-.54 0a4.29 4.29 0 0 0-.9 1.41 1.12 1.12 0 0 1-1.35.84 1 1 0 0 1 .16-.62c.18-.24.41-.45.6-.69s.37-.34.52-.54a2.35 2.35 0 0 0 .23-.53c.17-.37.34-.79.54-1.17s.72-1.09.08-1.44-.68.49-1.23.42a2.94 2.94 0 0 1 .4-1.07 1.14 1.14 0 0 0 .35-.77 1.48 1.48 0 0 0-.11-.78 1.67 1.67 0 0 1-1.22.64 3.52 3.52 0 0 1 .84-1.2 1.72 1.72 0 0 0 .42-.45 1 1 0 0 0-.09-.59c-.17-.2-.21-.09-.44.04a2.64 2.64 0 0 0-.51.42 2.44 2.44 0 0 1-.34.41.49.49 0 0 1-.59-.08 1.72 1.72 0 0 1 0-.57v-.9c0-.29-.15-.84-.15-1.28a1.1 1.1 0 0 0-.66.91c-.19.6-.3 1.23-.52 1.81a1 1 0 0 1-.47.61c0-.73.08-1.45 0-2.18a3.87 3.87 0 0 0-1 1.28 4 4 0 0 0-.5 1.31 5 5 0 0 0-.11 1.2 1.33 1.33 0 0 0-.35-.47 5.56 5.56 0 0 1-.21-.47 9 9 0 0 1-.48-1.23 2.5 2.5 0 0 0-.53-1.13 7.82 7.82 0 0 0-.25 2.26c-.14-.18-.22-.41-.33-.56a6.14 6.14 0 0 0-.12 1.36.76.76 0 0 0-.44-.3c-.26 0-.18.31-.18.53V6.4a1.58 1.58 0 0 1-.26-.08c-.26-.48-.61-1.06-.85-1.6-.7.8-.53 2.16-.51 3.16a5.66 5.66 0 0 0-.45-.88c-1.51.83.58 2 .34 3.22a1.09 1.09 0 0 0-.9-.77v1.12c-1.15.22-.61-.4-.35-.86a1.41 1.41 0 0 0 .08-1.47.62.62 0 0 0-.57.55c-.5-.19.19-1.83-1-1.83 0 .32.07.59 0 .9-.86.26-.49-1.59-1.55-1.4a2.06 2.06 0 0 0-.09 1.46 1.49 1.49 0 0 0-.9-1.1c-.15.62.34 1.79-.11 2.18a3.72 3.72 0 0 0-.44-1.59 1.05 1.05 0 0 0-.29.65c-.29-.4 0-1.07-.27-1.51s-.79-.19-.66.45c-.28-.18-.53-1.06-1-.78a1.45 1.45 0 0 0-.19 1.19c-.29-.27-1.87-1.62-1.5-.24-.21-.47-.62-1.34-1.06-.59-.32.54.27 1.42.33 1.88a1.41 1.41 0 0 1-.85-1.06c-.48-1-.78-.33-.57.48a1.24 1.24 0 0 0-.71-1 1.89 1.89 0 0 0 .07.59 1.24 1.24 0 0 0-1-.41c.1.43.24.94.35 1.32a1.46 1.46 0 0 0-.48-.18 4.27 4.27 0 0 0 .07 1.4c.14 0 .35.05.48 0 0 .32.11.87-.33.85S.78 10 .7 9.7c-.64-.16-.7.87-.7 1.3a2.09 2.09 0 0 1 .75.08c-.15.54 0 1 .65.73.13.64 1.86.46 2.43.63a5.77 5.77 0 0 1 1.93 1.06A9.42 9.42 0 0 1 4 13a1.76 1.76 0 0 1-1.09-.49 1.07 1.07 0 0 0-.48 0c0 .12-.05.31 0 .41C2 13 1.41 12.34 1 12.7s0 .67 0 1c-.17-.06-.44 0-.62 0a3.29 3.29 0 0 0 .07.69 2.17 2.17 0 0 1 .62-.05c-.07.86.36.66 1.06.66a.83.83 0 0 1 0 .33h-.69a1.27 1.27 0 0 0 0 .55c.45.07.88-.11 1.33 0a.83.83 0 0 1 0 .33h-.41a1.27 1.27 0 0 0 0 .55c.44.07.61-.5 1.06-.35a1.78 1.78 0 0 1 .51 1.22 2.13 2.13 0 0 1 1-1.08 2.08 2.08 0 0 0 0 .43 3 3 0 0 0 1.72-.56 2.12 2.12 0 0 1 1.7-.42c1.06.16 3 .92 2.77 2.35a2.68 2.68 0 0 0-1.71-.64 3 3 0 0 0-1.73.29c-1.27.56-2 1.5-3.17.52a1 1 0 0 0 .69.82c-.55.13-2.33 1-1.06 1.3.23 0 .86-.41 1.06-.08s-.44.63-.62.66a2.39 2.39 0 0 0 .91 1.15c.43.26.63 0 .7.5a2.18 2.18 0 0 1-.43 1 1.26 1.26 0 0 0-1.28.44 2.75 2.75 0 0 0 .58.08c0 .27 0 .49-.07.76-.47 0-.71-.44-1.19-.41v.76c-.77.1-1.62-.11-2.41 0 .39.25 2 .52 2.28.87s-.23.86-.71.76a.77.77 0 0 0 0 .35c.61.21 1.82-.28 2.28 0s.21.69.64.86 1.07-.26 1.29.21a.55.55 0 0 1-.56.73 1.49 1.49 0 0 1 0 .19c1.34.3 2.71.39 4 .65a4 4 0 0 1 1.5.62 1.82 1.82 0 0 1 .18.17c-.06 14.44-.56 41.57-.56 46 0 5.84 1.79 13.11 8.46 13.11s7.87-1.19 7.87-2.39-1.37-4-4.22-6.32c-4.42-3.66-6.39-7.62-7.22-13.1S15 47.21 15 41.37a146.09 146.09 0 0 0-.68-17.79 6.19 6.19 0 0 1 1.54 1.47 2.35 2.35 0 0 1 .65 1.7v1.49h-.44a2.28 2.28 0 0 0 .83 1.08c-.07 9-.16 19.21-1.11 23.91.71 13.6 1.74 17.47 1.74 17.47 1.1-8.92 1.32-21.07 1.12-31.74a1 1 0 0 0 .65.17 6.63 6.63 0 0 1 .87.18c-.64 10.35-1.23 20.24-1.35 21.69-.23 3.66-.94 10.61-.94 10.61a33.43 33.43 0 0 0 3.21 5.83c2.87-2 4.6-6.15 4.6-6.15-.83-3.18-1-11.83-.85-14.89.06-1.44 0-10.09-.06-19a3 3 0 0 0 .62-.17 1.08 1.08 0 0 0 .32-.23c-.09 2.36-.19 4.31-.29 5.43-.43 5.15 0 26.14 1.06 28.57 0 0 .44-4.61 1-20.84 0 0-.16-6.34-.39-13.89a2.93 2.93 0 0 1 .62-.46c.37-.22 1.49-.62 1-1.2a1.15 1.15 0 0 0 .54-.61c-.13 0-.21-.07-.34-.07-.1-.43.46-.61.79-.54 0 1.2-.54 2.19-.65 3.35a3.45 3.45 0 0 0 0 .85 1.09 1.09 0 0 0 .49.67 154 154 0 0 0-2.11 24.9c-.1 11.3-2.85 12-5.9 15.27 4.58 4 6.92 7 7.23 9.16 4-6.41 3.77-8.65 2.24-27.49a115.16 115.16 0 0 1-.17-17.32.87.87 0 0 1 .05-.19 6.48 6.48 0 0 1 .49-.59c.15-.22.29-.46.45-.68a3.67 3.67 0 0 1 .69-.84 12 12 0 0 1 1.15-.74c.81-.51 1.68-.87 2.48-1.38.47-.29 1.62-.68 1.79-1.28a3.4 3.4 0 0 1-.93 0c.37-.33 1-.38 1.2-.93-.1 0-.18.1-.29.14a13.18 13.18 0 0 1-1.37.15c-.17 0-1.25.3-1.36.05s1.75-.35 1.7-.63c-.23 0-1.06-.33-.53-.51.35-.12.8.23 1.16-.05a.91.91 0 0 0-.94-.51 2.39 2.39 0 0 1 .42-.86 1.8 1.8 0 0 0 .51-.85c0-.69-1 .42-1.23.48a3.57 3.57 0 0 0 .31-.6 3.43 3.43 0 0 0-.26-2 5.8 5.8 0 0 1-.1-1.16 1.7 1.7 0 0 0-.33-.87c-.21-.15-.36 0-.45.18a4.08 4.08 0 0 0-.15.67 4 4 0 0 1-.21 1.13c-.42.63-1.08-1.55-1.12-1.6-.08.57-.19 1.14-.25 1.72a4.25 4.25 0 0 1-.1 1.24.93.93 0 0 1-1.15-.5 8.87 8.87 0 0 1 .08-1.36 1.71 1.71 0 0 1 .19-1.08 1.39 1.39 0 0 1 .73-.8 6.93 6.93 0 0 1 1.18 0c.19 0 .35-.08.53-.1 1.1-.16 2.23.06 3.33-.08.83-.11 1.7-.2 2.54-.23a5.14 5.14 0 0 0 2.25-.43c.53-.26 1.11-.51 1.62-.8a4.23 4.23 0 0 1 .89-.45c.27-.08.53-.06.8-.16a3.65 3.65 0 0 0-1.7-.68zM19 18.47a5.54 5.54 0 0 0 0-.77c0 .58.93 1 .81 1.53a1.36 1.36 0 0 1-.94 0c-.46-.34-.01-.48.13-.76zm-.44 1.26a1.33 1.33 0 0 1 .55.1 3.34 3.34 0 0 0 .89-.14 1.5 1.5 0 0 1-.4.58c-.26.29-.41.68-.65 1v-.07c-.05-.55-.36-.96-.4-1.47zM20 24a.93.93 0 0 1-.44.81h-.07a2.1 2.1 0 0 1-.15-.33A5.38 5.38 0 0 1 20 24zm0 6.57a3 3 0 0 1-.7-1.29c-.09-.66.21-1.33.14-2a.3.3 0 0 0-.17.1v-.1c.59-.22.84.11.84.63s-.11.8-.11 1.18a5.8 5.8 0 0 1 0 1.48zm5.39-1.09a8.77 8.77 0 0 0 0 1.67c0 .23.19 1.52-.37 1a2.88 2.88 0 0 1-.07-1.65 13.43 13.43 0 0 0-.07-1.35 1.06 1.06 0 0 1 .48-1.28 2.45 2.45 0 0 1 .01 1.61zm7.25-13.11a6.4 6.4 0 0 1 .94-1.43c.15-.16.69-.42.84-.12a2.09 2.09 0 0 1-.47 1 13.85 13.85 0 0 0-.66 1.43 8.92 8.92 0 0 1-1.07 2.55 6.74 6.74 0 0 1 .39-3.43zm-.69 4.28a.82.82 0 0 1 .85-.55 1.11 1.11 0 0 1 1 0 2 2 0 0 1 .06.77 2.36 2.36 0 0 0-.65 0c.53.38.28.77.13 1.29s-.28 1.08-.4 1.65c-.42.07-.48-.25-.69-.55A1.86 1.86 0 0 1 32 22a4.27 4.27 0 0 1-.08-1.36zm-.33 3.5a.42.42 0 0 1 .73 0 .45.45 0 0 1 .11.36c0 .32-.16.14-.34.32-.48.47.13 1.55-.25 2.08a2.34 2.34 0 0 1-.19-1.29 4.82 4.82 0 0 1-.09-1.47zm-2.18 3.46c0 .25 0 1.26-.47.78a3.92 3.92 0 0 1-.38-1.91 2.6 2.6 0 0 0-.32 1.43 5.77 5.77 0 0 1 .61 1.65c-1.23.14-.38-2-1.3-1.84-.29 0-.21.47-.21.74s0 .79-.29.44a2.06 2.06 0 0 1-.05-.8 1.89 1.89 0 0 1-.03-.94c.25-.42 1.33.09.94-.87-.49 0-.83.16-.91-.34s0-.55.36-.62a3.7 3.7 0 0 1 1.27.17 3.69 3.69 0 0 0 1.13 0v-.06c-.35-.1-1.85-.54-1.14-.83a4.58 4.58 0 0 1 1.57.16 1.72 1.72 0 0 1-.83-.88 2.33 2.33 0 0 1 1.07.36 1.62 1.62 0 0 1 .2 1.26 1.5 1.5 0 0 1-.54.81 2.35 2.35 0 0 0-.71 1.29zm.93 3.11c-.4-.3-.27-1.31-.37-1.77a3.52 3.52 0 0 1-.11-1 2.09 2.09 0 0 1 .3-.87 3.63 3.63 0 0 1 .26-.6l.11.11v2.78a2.37 2.37 0 0 1-.22 1.35z"/></svg>