<svg id="Layer_1" data-name="Layer 1" xmlns="http://www.w3.org/2000/svg" viewBox="0 0 48.76 90.07"><defs><style>.cls-1{fill:#fff}</style></defs><title>eggplant</title><path class="cls-1" d="M48.56 58.1V56a7.57 7.57 0 0 0-.1-1.5v-.3c0-.6-.1-1.2-.1-1.8v-.5c0-.5-.1-1-.1-1.5V50c-.1-.6-.1-1.2-.2-1.8v-.3c-.1-.5-.1-1-.2-1.5a.9.9 0 0 0-.1-.5l-.3-1.8-.3-1.8c0-.2-.1-.3-.1-.5l-.3-1.5a.37.37 0 0 0-.1-.3c-.1-.6-.3-1.2-.4-1.8 0-.1-.1-.3-.1-.4a7.37 7.37 0 0 0-.4-1.4c0-.1-.1-.3-.1-.4-.2-.6-.3-1.1-.5-1.7 0-.1-.1-.2-.1-.3-.1-.5-.3-1-.4-1.5a2.27 2.27 0 0 0-.1-.4c-.2-.5-.3-1-.5-1.6v-.1c-.2-.5-.4-1.1-.6-1.6-.1-.1-.1-.3-.2-.4-.2-.4-.3-.9-.5-1.3 0-.1-.1-.2-.1-.3a10.09 10.09 0 0 0-.7-1.5c0-.1-.1-.2-.1-.3l-.6-1.2a1.47 1.47 0 0 1-.2-.4 17 17 0 0 1 2.6 2.7s-5.9-15.5-17-15.1a22.43 22.43 0 0 0-11.8-11 2.72 2.72 0 0 0-1 3s7.9.9 11.6 8.1c-11.1 1.5-12 14.4-12 14.4A7.21 7.21 0 0 1 15 23.6c-2 8.7.6 14.3-3 24.3C9.16 55.6-1.44 63.5.16 75.2a2.92 2.92 0 0 0 .2.9.76.76 0 0 0 .1.4c.1.3.1.5.2.8a2.27 2.27 0 0 1 .1.4c.1.4.2.8.3 1.1a6.94 6.94 0 0 0 .5 1.3 16.18 16.18 0 0 0 1 1.8 11.31 11.31 0 0 0 2.3 2.6 2.36 2.36 0 0 1 .5.5c5 4.1 13.1 5.9 20.9 4.7a32.9 32.9 0 0 0 4.3-.9c1-.3 2.1-.7 3.1-1.1a4.67 4.67 0 0 0 1-.5c.3-.1.5-.3.8-.4s.7-.4 1.1-.6a23.26 23.26 0 0 0 2.6-1.7l1.4-1.1a23 23 0 0 0 4.6-5.6 10.91 10.91 0 0 0 .6-1.1.37.37 0 0 0 .1-.3 10.37 10.37 0 0 0 .4-1 .35.35 0 0 1 .1-.2c.2-.4.3-.8.5-1.2 0-.1.1-.2.1-.3.1-.3.2-.7.3-1 0-.1.1-.2.1-.3a10.26 10.26 0 0 1 .4-1.4v-.2l.3-1.2c0-.1.1-.3.1-.4a6.75 6.75 0 0 0 .2-1.4v-.1c.1-.5.1-1 .2-1.6v-.4c0-.4.1-.9.1-1.3V64c0-.5.1-1.1.1-1.6v-4c-.2-.2-.2-.2-.2-.3zM6.36 63a40.85 40.85 0 0 0 10.7-26.3C19.76 55 6.36 63 6.36 63z"/></svg>