<svg id="Layer_1" data-name="Layer 1" xmlns="http://www.w3.org/2000/svg" viewBox="0 0 48.76 90.07"><defs><style>.cls-1{fill:#fff;}</style></defs><title>eggplant</title><path class="cls-1" d="M48.56,58.1V56a7.57,7.57,0,0,0-.1-1.5V54.2c0-.6-0.1-1.2-0.1-1.8V51.9c0-.5-0.1-1-0.1-1.5V50c-0.1-.6-0.1-1.2-0.2-1.8V47.9c-0.1-.5-0.1-1-0.2-1.5a0.9,0.9,0,0,0-.1-0.5l-0.3-1.8h0l-0.3-1.8c0-.2-0.1-0.3-0.1-0.5l-0.3-1.5a0.37,0.37,0,0,0-.1-0.3c-0.1-.6-0.3-1.2-0.4-1.8,0-.1-0.1-0.3-0.1-0.4a7.37,7.37,0,0,0-.4-1.4c0-.1-0.1-0.3-0.1-0.4-0.2-.6-0.3-1.1-0.5-1.7,0-.1-0.1-0.2-0.1-0.3-0.1-.5-0.3-1-0.4-1.5a2.27,2.27,0,0,0-.1-0.4c-0.2-.5-0.3-1-0.5-1.6V30.4c-0.2-.5-0.4-1.1-0.6-1.6-0.1-.1-0.1-0.3-0.2-0.4-0.2-.4-0.3-0.9-0.5-1.3,0-.1-0.1-0.2-0.1-0.3a10.09,10.09,0,0,0-.7-1.5c0-.1-0.1-0.2-0.1-0.3l-0.6-1.2a1.47,1.47,0,0,1-.2-0.4h0a17,17,0,0,1,2.6,2.7s-5.9-15.5-17-15.1A22.43,22.43,0,0,0,14.86,0a2.72,2.72,0,0,0-1,3s7.9,0.9,11.6,8.1c-11.1,1.5-12,14.4-12,14.4A7.21,7.21,0,0,1,15,23.6c-2,8.7.6,14.3-3,24.3C9.16,55.6-1.44,63.5.16,75.2h0a2.92,2.92,0,0,0,.2.9,0.76,0.76,0,0,0,.1.4c0.1,0.3.1,0.5,0.2,0.8a2.27,2.27,0,0,1,.1.4c0.1,0.4.2,0.8,0.3,1.1a6.94,6.94,0,0,0,.5,1.3,16.18,16.18,0,0,0,1,1.8,11.31,11.31,0,0,0,2.3,2.6,2.36,2.36,0,0,1,.5.5c5,4.1,13.1,5.9,20.9,4.7a32.9,32.9,0,0,0,4.3-.9c1-.3,2.1-0.7,3.1-1.1a4.67,4.67,0,0,0,1-.5c0.3-.1.5-0.3,0.8-0.4s0.7-.4,1.1-0.6a23.26,23.26,0,0,0,2.6-1.7l1.4-1.1a23,23,0,0,0,4.6-5.6h0a10.91,10.91,0,0,0,.6-1.1,0.37,0.37,0,0,0,.1-0.3,10.37,10.37,0,0,0,.4-1,0.35,0.35,0,0,1,.1-0.2c0.2-.4.3-0.8,0.5-1.2,0-.1.1-0.2,0.1-0.3,0.1-.3.2-0.7,0.3-1,0-.1.1-0.2,0.1-0.3a10.26,10.26,0,0,1,.4-1.4V70.8l0.3-1.2c0-.1.1-0.3,0.1-0.4a6.75,6.75,0,0,0,.2-1.4V67.7c0.1-.5.1-1,0.2-1.6V65.7c0-.4.1-0.9,0.1-1.3V64c0-.5.1-1.1,0.1-1.6v-4C48.56,58.2,48.56,58.2,48.56,58.1ZM6.36,63a40.85,40.85,0,0,0,10.7-26.3C19.76,55,6.36,63,6.36,63Z"/></svg>