<svg id="Layer_1" data-name="Layer 1" xmlns="http://www.w3.org/2000/svg" viewBox="0 0 56.89 62.26"><defs><style>.cls-1{fill:#fff;}</style></defs><title>lettuce</title><path class="cls-1" d="M0,16.25c0-4,3.57-9.83,4.47-5.51a7.5,7.5,0,0,1,4.61,7.15s6.55-.74,7.59,1.79,0,6.26,0,6.26,6,0,4.62,2.83S21,32,22.78,35s3,0.9,3,3.87S29,41.56,29,44.69a16.13,16.13,0,0,0,1.19,6.55C31,53.32,31,52.88,29.92,56s-6.25,6.25-8.78,6.25-9.68-2.53-6.4-13.85a15.49,15.49,0,0,0-1.49,10.87S6.4,52.73,8.93,45.14s2.23-9.08,2.23-9.08S6.25,46,6.4,50.2c0,0-2.68-10.57.3-17.57,0,0-2.23.3-2.23,3.13,0,0-1.49-4.76-1.49-6.4s-0.3,5.51-.3,7.89-1.34,5.06-.3,7A60.8,60.8,0,0,1,5.95,55.71S-1.35,48.26.59,34.86,0,20.27,0,16.25ZM27.84,61.66c7.29,1.49,9.52-3.13,9.52-3.13l0.45,2.53c4.31-5.21,3-13.7,3-13.7l2.53,9.08s1.79-.15,2.53-3.87S42.58,37.1,42.58,37.1l1.49,2.23c1.49,2.23,4,12.06,4,12.06s3-2.08,1.49-7.6-1.79-14.44-1.79-14.44c0,2.83,3.72,11.61,3.72,11.61-0.19-3.39-.26-11.7-0.28-17.09a20.42,20.42,0,0,0,1,5.77,29.28,29.28,0,0,1,1.49,8.94L54.93,31s0.59,9.68-1.19,13a29.74,29.74,0,0,0-2.53,6.25L53.15,49c2.68,2.23-11.76,12.21-11.76,12.21s8.79-4,12.06-9.23,4.32-13.4,2.68-21.59-1.34-13-1-19.21S51.51,7.47,49.28,9.4s-1.19,3.87-3.57,5.51-2.23,2.53-2.53,4.91S40,23.4,36.62,23.7s0.75,3.87-.74,5.06S33.5,31,33.5,32.18s1.64,1.64-2.23,1.79-2.38,1.94-1.49,3.13,0,2.83-.9,3.72,1.64,2.09,1.64,2.09c1.34,1.19.6,5.51,1.49,6.85s0.9,2.53.9,4.32-1.79,4-2.23,5.06S27.84,61.66,27.84,61.66ZM22.13,30.94c-1,1.78,2.28,3.57,3.67,4.76s1.88,4.37,1.88,4.37a1.45,1.45,0,0,0,.59-1.78c-0.3-1.39-.69-4.77,1-6.25s3,0.1,2.78-1.79,2.38-2.38,1.39-2.68-3.91-3.07-6.35-5C24,20.23,19.84,20,19.45,21.32s1.09,4.36,2.78,5.85S23.12,29.16,22.13,30.94Zm24-18.17s-6-3.37-9.63-1.29-7.25,4.37-8.34,4.86S25,19.42,25.7,20.12s7.74,6.06,7.74,6.06a5,5,0,0,1,3.17-3.48c2.58-.79,4.47-2.28,4.47-3.87s2-4.27,4.07-4.56S47.24,12.48,46.15,12.78ZM40.89,9c-0.3-1.39-2.28-3-3.08-5.56s-3.47.4-4.56-2-1.88-.5-3,1.19S26.4,2.45,25,.47s-1.88,3-3.07,2.68S20.44,4.64,18.86,6s-2.09.1-3.87,1a9,9,0,0,0-3.08,3.37A82.18,82.18,0,0,1,25,6.32a16.81,16.81,0,0,1,2.77-.38c0.07,0.32.19,0.85,0.37,1.6h0s-0.24-1-.39-1.6A27.26,27.26,0,0,1,40.89,9Zm-11-1.69a9.44,9.44,0,0,1-1.09,4.27s0.89,2.28,2.28,1a10.76,10.76,0,0,1,5.55-2.38c1.29,0,4.37.5,3.08-.6C39.7,9.6,33.54,7.22,29.88,7.32Zm-1.66.52c0-.11,0-0.19-0.07-0.29C27.8,7.56,15.48,8,10,14.39c0,0,.08,2.23,1.71,2.46s3.57-1.71,4.39-1,1.12,2.31,2.23,1.94S29.4,13,28.21,7.84ZM29,14.47c0.6-.45-0.89-1.79-0.89-1.79-1,3.5-8.41,6.77-8.41,6.77s4.61,0.52,4.69-.52S28.43,14.91,29,14.47Z"/></svg>