<svg id="Layer_1" data-name="Layer 1" xmlns="http://www.w3.org/2000/svg" viewBox="0 0 90 64.53"><defs><style>.cls-1{fill:#fff}</style></defs><title>mushroom</title><path class="cls-1" d="M19.85 44h-7.8a28.26 28.26 0 0 0-1 7.73c0 5.09-2.63 10.87-4.26 12.8h18.67c-1.64-1.93-4.61-7.71-4.61-12.8a28.35 28.35 0 0 0-1-7.73zm10.52-7.75h-8.58a2.66 2.66 0 0 1-2.65-2.95 52.43 52.43 0 0 1 2.78-11.35 9.15 9.15 0 0 0-6-2.66C7.68 19.28.87 34.79 0 42.83h31.9a33.1 33.1 0 0 0-1.53-6.59zm27.39-2.66A39.61 39.61 0 0 1 64.34 22C60.38 11.36 53 0 44.54 0 32.75 0 23 22.11 21.79 33.58h36zM74 19.28c-8.27 0-15.08 15.51-16 23.55h32c-.87-8.05-7.68-23.55-16-23.55zM77.95 44h-7.8a28.26 28.26 0 0 0-1 7.73c0 5.09-2.62 10.87-4.26 12.8h18.66c-1.64-1.93-4.61-7.71-4.61-12.8a28.31 28.31 0 0 0-.99-7.73zM50.1 35.24H39a40.32 40.32 0 0 0-1.43 11c0 7.26-3.74 15.5-6.08 18.25H58.1c-2.33-2.75-6.57-11-6.57-18.25a40.37 40.37 0 0 0-1.43-11z"/></svg>