<svg id="Layer_1" data-name="Layer 1" xmlns="http://www.w3.org/2000/svg" viewBox="0 0 73.66 75.28"><defs><style>.cls-1{fill:#fff;}</style></defs><title>onion</title><path class="cls-1" d="M48.27,26.52h0c-8.35-2.8-8.23-8-8.23-8C37.55,9.86,42,1.79,42,1.79L36.83,0c-6.18,11.29-3,14.16-4.3,19.27s-10.2,8.06-10.2,8.06h0C9.2,31.31,0,40.53,0,51.28s9.3,20.06,22.54,24c-13.08-10.88-8.18-32-8.18-32-1.64,25.4,25.39,31.52,25.39,31.52,3-4.73,4.56-23.48,4.41-27.42l0-.25a2.31,2.31,0,0,0,0-.53s0,0.28,0,.77c2.75,18.57,1,27.78,1,27.78C65.49,64.82,55.69,42.58,55.69,42.58,65.17,54.43,62,66,59.73,71.67c8.49-4.77,13.93-12.13,13.93-20.39C73.66,39.72,63,29.93,48.27,26.52Z"/></svg>