<svg id="Layer_1" data-name="Layer 1" xmlns="http://www.w3.org/2000/svg" viewBox="0 0 72.54 83.82"><defs><style>.cls-1{fill:#fff}</style></defs><title>pea</title><path class="cls-1" d="M60.39 79.09A12.49 12.49 0 0 0 50.29 57a11.74 11.74 0 0 0-13.44-5.84v-.46a8.28 8.28 0 0 0-.56-3c1.19.56 2.39 1.12 3.58 1.67 4.81 2.21 9.72 4.17 14.65 6.1 2.83 1.1 5.94 2 8.11 4.28 2.66 2.73 3.48 6.69 3.53 10.37 0 .82-.34 8.79-1.9 8a22.06 22.06 0 0 0 3.15 1.31c2 .62 2.62-3.68 2.81-4.9.71-4.73.18-9.4-2.72-13.3a29.14 29.14 0 0 0-10.15-8.1c-1-.54-2.08-1-3.12-1.51-2.78-1.24-5.51-2.59-8.15-4.1C36.4 42 27.31 35.18 18.5 28.29 14 24.8 9.63 21.18 5.38 17.42c4.23 6.43 8.11 13.21 13.45 18.81a41.8 41.8 0 0 0 7.9 6.35A8.34 8.34 0 0 0 23 44.52c-2.49-3.08-4.94-6.19-7.32-9.36-3.45-4.61-6.8-9.33-9.87-14.21a21.16 21.16 0 0 1-2-5.28c0-.09-.29-2.22-.29-2.22H0s1.67 7 1.7 7.26c1 10.54 4.56 21 9.11 30.45 3.74 7.81 7.72 16.28 14 22.4a35.26 35.26 0 0 0 12.57 7.91c11.41 3.89 23.8 2.57 35.16-1-3.41 1.03-11.79-1.25-12.15-1.38zM24 45.75A7.24 7.24 0 0 1 34.7 52a11.84 11.84 0 0 0-3.39 2.49q-3.73-4.33-7.31-8.74zm16.32 19.67c-2.56-2.94-5-6-7.41-9.08l-.28-.34a10.23 10.23 0 0 1 13.91 2.36 12.53 12.53 0 0 0-5.92 7.41zm10.18 10.7c-3.81-2.47-6.4-6.15-9.24-9.58a10.88 10.88 0 1 1 17.57 12.41 20.28 20.28 0 0 1-8.33-2.83zM3.48 13.44l-.56-7.11h-.4A4.2 4.2 0 0 1 4 3.19a4.32 4.32 0 0 0 .43 2.6C5.69 7.94 9.6 6.43 8.91 4a3.54 3.54 0 0 0-3.09-2.14 3.89 3.89 0 0 0-1 0A2.86 2.86 0 0 1 7.15 0a4.07 4.07 0 0 0-2.39 1.26 3.47 3.47 0 0 0-.41.74 5 5 0 0 0-2.07 1.15 3.84 3.84 0 0 0-1 2 6.43 6.43 0 0 0-.14 1.27H.72L0 13.45h3.48zm2-7.59a3 3 0 0 1-.93-2.92l.14-.05a3.79 3.79 0 0 1 2.72.22c1.88 1.16-.18 4.05-1.89 2.75z"/></svg>