<svg id="Layer_1" data-name="Layer 1" xmlns="http://www.w3.org/2000/svg" viewBox="0 0 49.8 97.58"><defs><style>.cls-1{fill:none;}.cls-2{fill:#fff;}</style></defs><title>potato</title><rect class="cls-1" y="1" width="49.8" height="96.58"/><path class="cls-2" d="M43.63,25.68A61.88,61.88,0,0,1,46.2,40.45a85.76,85.76,0,0,1-3,27.45,3.22,3.22,0,0,1-1.83,2.22,18.17,18.17,0,0,1-7,1.92,4.18,4.18,0,0,0-2.24.59c1.59,0,3.19.11,4.77,0s3.28-.56,5.24-0.91c-1.44,4.65-1.43,9.64-5.6,13.1S28.37,92,24.35,95.73c-2.15,2-4.48,2-7,.95-5.77-2.5-10-6.3-11.39-12.8C4.63,77.55,3,71.3,1.69,65a30.51,30.51,0,0,1-.21-11.82A19.72,19.72,0,0,1,3.42,47c2.66-4.55,3.25-9.47,3.43-14.55C7,28,7.14,23.53,7.47,19.09a17.67,17.67,0,0,1,2.47-7.35c1.07-1.9,2-3.89,3-5.8C16.79-.9,22.07-1.86,28,3.19,28.9,4,29.73,4.79,30.57,5.6a7.92,7.92,0,0,1,.67.87c-1.28,2.66-4,2.45-6.62,3.31,3.19,0.4,5.72,0,8-2,5,3.13,8.82,7.16,10.39,13,0.7,2.63.5,3.2-2.08,4.26s-5.06,1.66-8.15,2.64c2.29-.23,4.05-0.29,5.76-0.61S41.81,26.2,43.63,25.68ZM18.07,56.49c0-2.18-2.29-5.18-4.36-5.63-1.54-.34-2.53.36-2.61,1.85-0.12,2.2,2.37,5.37,4.52,5.78A1.84,1.84,0,0,0,18.07,56.49ZM15.79,73.38A3.68,3.68,0,0,0,16.74,72c0.19-1.22-1.31-3.21-2.56-3.68a1.46,1.46,0,0,0-2.06,1.39C12.08,71.19,13.93,73.27,15.79,73.38Z"/></svg>