<svg id="Layer_1" data-name="Layer 1" xmlns="http://www.w3.org/2000/svg" viewBox="0 0 96 89.91"><defs><style>.cls-1{fill:#fff;}</style></defs><title>tomato</title><path class="cls-1" d="M61,14.83a1.26,1.26,0,0,1-.26,0A35.1,35.1,0,0,1,70,0C62.4,3.11,53,13.91,53,13.91H52S49,3.85,45.16,2.28C46,5.82,46.53,10.62,45,13.91H44s-9.35-9.23-16.55-12a34.27,34.27,0,0,1,8.95,13C13,12.91,0,26.16,0,50.41c0,21.82,18,39.5,48,39.5s48-17.68,48-39.5C96,25.93,83,12.91,61,14.83ZM14.77,39.91h0c-0.82,5-8.64,6.14-6.17-1.58C10.15,32.61,17,20.9,31,19.9,22.08,23.31,15.24,33.91,14.77,39.91Z"/></svg>